<svg xmlns="http://www.w3.org/2000/svg" width="48" height="48" viewBox="0 0 48 48" fill="none">
  <circle cx="24" cy="24" r="24" fill="#FDF2F8"/>
  <path d="M24 12C18.477 12 14 16.477 14 22C14 27.523 18.477 32 24 32C29.523 32 34 27.523 34 22C34 16.477 29.523 12 24 12ZM24 30C19.582 30 16 26.418 16 22C16 17.582 19.582 14 24 14C28.418 14 32 17.582 32 22C32 26.418 28.418 30 24 30Z" fill="#EC4899"/>
  <path d="M34 34H14C13.447 34 13 34.447 13 35C13 35.553 13.447 36 14 36H34C34.553 36 35 35.553 35 35C35 34.447 34.553 34 34 34Z" fill="#EC4899"/>
  <path d="M19 22C19 19.794 20.794 18 23 18H25C27.206 18 29 19.794 29 22C29 24.206 27.206 26 25 26H23C20.794 26 19 24.206 19 22Z" fill="#FCE7F3"/>
</svg>